HIERARCHY
ROOT Hips
{
    OFFSET 0.000000 0.000000 0.000000
    CHANNELS 6 Xposition Yposition Zposition Zrotation Xrotation Yrotation
    JOINT Spine
    {
        OFFSET -0.000000 14.517291 0.000000
        CHANNELS 3 Zrotation Xrotation Yrotation
        JOINT Spine1
        {
            OFFSET -0.000000 37.558300 0.000000
            CHANNELS 3 Zrotation Xrotation Yrotation
            JOINT Neck
            {
                OFFSET -0.000000 37.404057 3.400369
                CHANNELS 3 Zrotation Xrotation Yrotation
                JOINT Head
                {
                    OFFSET -0.000000 24.785618 -3.540803
                    CHANNELS 3 Zrotation Xrotation Yrotation
                    End Site
                    {
                        OFFSET -0.000000 35.408028 0.000000
                    }
                }
            }
            JOINT LeftShoulder
            {
                OFFSET 6.992933 33.973492 -0.192664
                CHANNELS 3 Zrotation Xrotation Yrotation
                JOINT LeftArm
                {
                    OFFSET 21.527611 0.000000 0.000000
                    CHANNELS 3 Zrotation Xrotation Yrotation
                    JOINT LeftForeArm
                    {
                        OFFSET 56.353916 0.000000 0.000000
                        CHANNELS 3 Zrotation Xrotation Yrotation
                        JOINT LeftHand
                        {
                            OFFSET 47.774071 0.000000 0.000000
                            CHANNELS 3 Zrotation Xrotation Yrotation
                            End Site
                            {
                                OFFSET 26.556021 0.000000 0.000000
                            }
                        }
                    }
                }
            }
            JOINT RightShoulder
            {
                OFFSET -7.065357 33.973492 -0.192664
                CHANNELS 3 Zrotation Xrotation Yrotation
                JOINT RightArm
                {
                    OFFSET -21.527611 0.000000 0.000000
                    CHANNELS 3 Zrotation Xrotation Yrotation
                    JOINT RightForeArm
                    {
                        OFFSET -56.353916 0.000000 0.000000
                        CHANNELS 3 Zrotation Xrotation Yrotation
                        JOINT RightHand
                        {
                            OFFSET -47.774071 0.000000 0.000000
                            CHANNELS 3 Zrotation Xrotation Yrotation
                            End Site
                            {
                                OFFSET -26.556021 0.000000 0.000000
                            }
                        }
                    }
                }
            }
        }
    }
    JOINT LeftUpLeg
    {
        OFFSET 17.704014 0.000000 0.000000
        CHANNELS 3 Zrotation Xrotation Yrotation
        JOINT LeftLeg
        {
            OFFSET -0.000000 -81.181816 0.000000
            CHANNELS 3 Zrotation Xrotation Yrotation
            JOINT LeftFoot
            {
                OFFSET -0.000000 -62.821102 0.000000
                CHANNELS 3 Zrotation Xrotation Yrotation
                JOINT LeftToeBase
                {
                    OFFSET -0.000000 -11.507608 26.556021
                    CHANNELS 3 Zrotation Xrotation Yrotation
                    End Site
                    {
                        OFFSET -0.000000 0.000000 7.081605
                    }
                }
            }
        }
    }
    JOINT RightUpLeg
    {
        OFFSET -17.704014 0.000000 0.000000
        CHANNELS 3 Zrotation Xrotation Yrotation
        JOINT RightLeg
        {
            OFFSET -0.000000 -81.181816 0.000000
            CHANNELS 3 Zrotation Xrotation Yrotation
            JOINT RightFoot
            {
                OFFSET -0.000000 -62.821102 0.000000
                CHANNELS 3 Zrotation Xrotation Yrotation
                JOINT RightToeBase
                {
                    OFFSET -0.000000 -11.507608 26.556021
                    CHANNELS 3 Zrotation Xrotation Yrotation
                    End Site
                    {
                        OFFSET -0.000000 0.000000 7.081605
                    }
                }
            }
        }
    }
}
MOTION
Frames:    10
Frame Time:    0.008333
-27.679119    152.223358    -29.315393    0.483867    3.785432    23.227509    -0.764670    4.015767    9.999792    -4.964451    -2.143167    3.232406    -0.547678    2.030145    -12.497090    10.833786    -2.664239    -11.168604    2.449693    3.765683    -8.614193    -36.510117    18.955172    -55.482197    -6.862013    -18.831610    -129.856613    -1.467286    -32.037308    -7.221763    -4.616086    1.322801    5.479192    34.608063    -18.569265    53.867737    -46.616535    -37.172054    48.768112    4.407325    -15.691620    38.300144    -3.252681    -34.881489    -29.583202    -11.666471    25.668320    -24.707525    -8.448253    -1.414957    32.334980    0.000000    0.000000    0.000000    1.898779    7.280831    -25.443188    2.247430    25.523357    -5.826097    2.474035    -30.655445    -9.247451    0.000000    0.000000    0.000000    
-27.679596    152.223236    -29.320400    0.487212    3.788280    23.214357    -0.766409    4.017247    9.995152    -4.958841    -2.147897    3.230742    -0.690296    2.081128    -12.528656    11.023911    -2.664404    -11.152109    2.418474    3.767547    -8.622007    -36.520458    18.951166    -55.474594    -6.864968    -18.832584    -129.859207    -1.450241    -32.045635    -7.204165    -4.566345    1.444686    5.433530    34.695869    -18.286478    53.890789    -46.826057    -37.176582    48.515682    4.436886    -15.708171    38.250694    -3.248920    -34.884811    -29.566647    -11.663433    25.671677    -24.717978    -8.454486    -1.412765    32.338253    0.000000    0.000000    0.000000    1.892173    7.277621    -25.435431    2.242242    25.524355    -5.794260    2.457827    -30.661997    -9.270394    0.000000    0.000000    0.000000    
-27.682760    152.223053    -29.325411    0.486212    3.789275    23.207138    -0.753930    4.019868    9.984991    -4.980392    -2.149934    3.226999    -0.569551    2.030674    -12.507346    10.801057    -2.610995    -11.186751    2.410949    3.778342    -8.610682    -36.517509    18.952610    -55.496696    -6.862099    -18.840309    -129.844864    -1.435402    -32.043789    -7.198612    -4.495505    1.578378    5.393246    34.791744    -17.996519    53.931160    -47.107010    -37.180840    48.225315    4.415459    -15.724119    38.203270    -3.238878    -34.890377    -29.557533    -11.679565    25.668486    -24.692055    -8.454506    -1.402395    32.333366    0.000000    0.000000    0.000000    1.895299    7.274505    -25.419958    2.243056    25.520325    -5.809392    2.460105    -30.665886    -9.262454    0.000000    0.000000    0.000000    
-27.682178    152.223465    -29.328329    0.490570    3.790679    23.198059    -0.746605    4.016899    9.974499    -4.997217    -2.144448    3.223515    -0.576634    2.038809    -12.509002    10.793641    -2.597464    -11.190060    2.397856    3.786502    -8.603028    -36.512955    18.958670    -55.505283    -6.862794    -18.859516    -129.838211    -1.464506    -32.058571    -7.217606    -4.414832    1.708951    5.360106    34.913067    -17.752193    53.976109    -47.275597    -37.196209    48.031631    4.494288    -15.730752    38.142475    -3.237803    -34.887730    -29.541393    -11.669937    25.666847    -24.720284    -8.450908    -1.403203    32.337383    0.000000    0.000000    0.000000    1.890958    7.278180    -25.409370    2.243197    25.508795    -5.803183    2.449229    -30.665768    -9.275155    0.000000    0.000000    0.000000    
-27.679569    152.224731    -29.330652    0.493637    3.789280    23.187654    -0.749202    4.006788    9.970468    -4.987873    -2.129647    3.222980    -0.609527    2.035050    -12.511552    10.809839    -2.563254    -11.188932    2.372438    3.802492    -8.597482    -36.515717    18.953329    -55.520950    -6.863878    -18.846359    -129.821350    -1.455266    -32.044514    -7.209677    -4.339465    1.852982    5.329831    34.962437    -17.473232    54.000942    -47.487915    -37.272758    47.760536    4.517795    -15.844427    38.165287    -3.232695    -34.881794    -29.518152    -11.665625    25.661238    -24.711512    -8.441772    -1.395573    32.324265    0.000000    0.000000    0.000000    1.886768    7.283260    -25.390104    2.245391    25.503494    -5.796303    2.446085    -30.670410    -9.274032    0.000000    0.000000    0.000000    
-27.682495    152.227524    -29.330856    0.494936    3.796566    23.180643    -0.758510    3.990061    9.961919    -4.978924    -2.117878    3.220731    -0.614625    2.009826    -12.506320    10.783780    -2.504376    -11.192341    2.360205    3.802988    -8.593904    -36.533928    18.954735    -55.513771    -6.873733    -18.822147    -129.819351    -1.464465    -32.039967    -7.186559    -4.252765    1.970919    5.312612    35.099960    -17.266417    54.036533    -47.576878    -37.284664    47.644459    4.523125    -15.872187    38.142838    -3.225687    -34.884350    -29.505409    -11.666908    25.651064    -24.724611    -8.450861    -1.395917    32.336571    0.000000    0.000000    0.000000    1.885802    7.277944    -25.392084    2.239214    25.495056    -5.784284    2.441967    -30.667465    -9.296303    0.000000    0.000000    0.000000    
-27.680340    152.229996    -29.336536    0.497906    3.802787    23.170324    -0.759230    3.979165    9.953739    -4.976161    -2.107661    3.218491    -0.618670    1.994098    -12.500633    10.747456    -2.463122    -11.195478    2.339672    3.802888    -8.589401    -36.536140    18.969601    -55.503765    -6.877300    -18.810946    -129.820084    -1.440354    -32.038151    -7.169134    -4.162667    2.112509    5.285985    35.217659    -17.078403    54.085571    -47.588787    -37.328136    47.574562    4.530975    -15.955463    38.077427    -3.226387    -34.883072    -29.487492    -11.653371    25.641609    -24.730827    -8.454046    -1.390980    32.325657    0.000000    0.000000    0.000000    1.875926    7.273849    -25.384346    2.245144    25.491819    -5.785775    2.428736    -30.664776    -9.293782    0.000000    0.000000    0.000000    
-27.678310    152.235474    -29.337185    0.503722    3.803155    23.161060    -0.768875    3.970193    9.952084    -4.960357    -2.093833    3.218743    -0.630185    1.979084    -12.497774    10.723179    -2.424912    -11.198324    2.323157    3.826780    -8.583013    -36.511116    18.968988    -55.547096    -6.847688    -18.823574    -129.774033    -1.185963    -31.995293    -7.159851    -4.078799    2.233888    5.262533    35.302509    -16.836473    54.117104    -47.741917    -37.372276    47.382484    4.602699    -16.012165    37.928349    -3.228869    -34.874302    -29.484690    -11.650770    25.633535    -24.715420    -8.454584    -1.385252    32.324532    0.000000    0.000000    0.000000    1.868058    7.270916    -25.367094    2.245842    25.498823    -5.780678    2.420787    -30.659754    -9.310281    0.000000    0.000000    0.000000    
-27.678276    152.240936    -29.339712    0.504812    3.802176    23.148308    -0.778291    3.969835    9.955256    -4.934426    -2.094066    3.220160    -0.671772    1.974875    -12.494823    10.734865    -2.393260    -11.190777    2.301645    3.836622    -8.580907    -36.522572    18.969095    -55.534195    -6.858675    -18.780746    -129.771683    -1.184407    -31.976473    -7.159663    -4.004529    2.348182    5.236176    35.411533    -16.584154    54.143963    -47.863483    -37.433842    47.221287    4.699781    -16.078495    37.868820    -3.222518    -34.867893    -29.476013    -11.639100    25.627514    -24.732485    -8.459914    -1.383821    32.335392    0.000000    0.000000    0.000000    1.864975    7.267437    -25.349752    2.244784    25.501797    -5.792409    2.435210    -30.650761    -9.301291    0.000000    0.000000    0.000000    
-27.678087    152.245453    -29.344172    0.507701    3.802682    23.133497    -0.782297    3.967557    9.959658    -4.927606    -2.085587    3.222076    -0.670958    1.957866    -12.495297    10.701808    -2.359866    -11.199668    2.302789    3.844166    -8.573516    -36.515007    18.991215    -55.541515    -6.862819    -18.779934    -129.778229    -1.193834    -31.984793    -7.150256    -3.915186    2.456668    5.207890    35.534168    -16.390734    54.162968    -47.839149    -37.475189    47.204807    4.673663    -16.159409    37.848251    -3.217311    -34.862034    -29.470592    -11.635381    25.614838    -24.724987    -8.468086    -1.377464    32.333168    0.000000    0.000000    0.000000    1.855975    7.254463    -25.349876    2.234912    25.523418    -5.798596    2.450425    -30.647617    -9.277387    0.000000    0.000000    0.000000    
